<svg xmlns="http://www.w3.org/2000/svg"  viewBox="0 0 48 48" width="48px" height="48px"><path fill="#d6e5e5" d="M44.331,37.798c0-5,0.164-3.146,0.16-7.645c-0.004-3.752-0.686-4.392-0.532-7.081	c0.127-2.228,0.533-6.695,0.386-8.922c-0.2-3.044,0.242-6.066-2.555-8.229c-1.768-1.367-4.504-2.003-6.676-2.111	c-2.172-0.108-5.829,0.08-7.998-0.077c-6.082-0.439-4.617,0.1-10.251-0.128c-2.056-0.083-7.528-0.05-10.019,1.504	c-1.68,1.048-3.059,4.106-3.016,7.476c0.057,4.447,0.118,6.681,0.095,11.128c-0.009,1.699-0.098,3.553-0.106,5.253	c-0.007,1.371,0.257,4.528,0.279,5.899c0.02,1.275,0.099,4.203,0.205,5.508c0.106,1.305,1.143,2.679,2.286,3.32	c1.5,0.841,4.143,0.734,4.996,0.809c1.044,0.093,4.895-0.048,5.431-0.031c5.172,0.161,12.527-0.35,15.177-0.338	c3.513,0.016,5.052,0.001,7.138-0.335C42.333,43.314,44.523,41.707,44.331,37.798"/><path fill="#73a1b2" d="M21.279,18.765c-0.96-0.179-1.997,0.123-2.71,0.79s-1.018,1.27-1.108,2.435	c-0.039,0.505,0.248,1.464,0.451,1.928c0.329,0.752,0.913,1.268,1.679,1.562c0.479,0.183,1.325,0.199,1.834,0.132	c0.779-0.103,2.072-0.634,2.81-1.601c0.722-0.946,0.713-2.345,0.109-3.37c-0.605-1.025-1.757-1.675-2.943-1.774"/><path fill="#73a1b2" d="M30.405,33.411h-0.283c-1.522-1.801-4.482-3.254-6.785-3.764c-2.302-0.51-4.724-0.359-7.004,0.242	c-1.915,0.505-3.845,1.406-4.94,3.056l-0.057,0.214c2.624,3.051,7.092,4.019,11.161,3.781c2.664-0.156,5.491-0.82,7.286-2.794	C29.973,33.935,30.186,33.683,30.405,33.411z"/><path fill="#010101" d="M21.347,37.473c-2.935,0-7.994-0.621-10.851-4.513c-1.364-1.857-2.095-4.281-2.299-7.627	c-0.165-2.702,0.061-4.821,0.712-6.67c2.123-6.027,8.438-8.388,13.582-7.615c4.199,0.36,9.141,2.761,10.729,7.315	c0.486,1.397,1.016,4.081,0.995,5.582c-0.04,3.031-0.552,4.479-1.798,7.295c-0.445,1.006-1.485,2.385-2.264,3.24	c-1.599,1.76-4.165,2.755-7.626,2.958C22.192,37.458,21.794,37.473,21.347,37.473z M20.549,11.904	c-4.321,0-8.994,2.255-10.697,7.091c-0.605,1.719-0.814,3.713-0.657,6.277c0.192,3.146,0.861,5.4,2.106,7.096	c3.003,4.09,8.808,4.21,11.166,4.072c3.192-0.188,5.528-1.073,6.945-2.632c0.749-0.824,1.707-2.109,2.09-2.973	c1.213-2.74,1.675-4.045,1.712-6.904c0.019-1.378-0.489-3.947-0.939-5.239c-1.442-4.138-6.004-6.321-9.885-6.649l-0.033-0.004	C21.768,11.949,21.161,11.904,20.549,11.904z"/><path fill="#71c598" d="M44.345,34.113c-1.442,0.078-5.176-0.078-6.618,0l0.341,9.857c0,0,3.224-0.328,4.872-1.798	C45.21,40.149,44.345,34.113,44.345,34.113z"/><path fill="#f58420" d="M44.345,34.113c-1.442,0.078-5.176-0.078-6.618,0l-0.05-10.068c1.352,0.099,4.295,0,5.647-0.091	l0.388-0.015l0.514,2.664l0.265,3.551L44.345,34.113z"/><path fill="#010101" d="M30.122,33.911c-0.142,0-0.283-0.061-0.382-0.178c-1.471-1.74-4.389-3.128-6.511-3.599	c-2.087-0.463-4.428-0.381-6.769,0.237c-2.22,0.586-3.785,1.544-4.651,2.849c-0.153,0.23-0.463,0.291-0.693,0.141	c-0.23-0.153-0.293-0.463-0.14-0.693c1.005-1.516,2.765-2.613,5.229-3.263c2.494-0.656,4.998-0.744,7.24-0.247	c2.216,0.491,5.369,1.931,7.059,3.931c0.179,0.211,0.151,0.526-0.06,0.704C30.351,33.872,30.236,33.911,30.122,33.911z"/><path fill="#16b7b8" d="M43.324,23.953c-1.353,0.092-3.978,0.084-5.33-0.015V14.16c1.254,0.16,5.088,0.058,6.35-0.01	l-0.097,4.565l-0.312,5.097L43.324,23.953z"/><path fill="#010101" d="M20.8,26.147c-0.462,0-0.994-0.05-1.387-0.201c-0.91-0.348-1.587-0.979-1.959-1.827	c-0.183-0.418-0.543-1.497-0.492-2.168c0.096-1.256,0.427-1.979,1.265-2.762c0.827-0.773,2.034-1.127,3.143-0.916	c0.09,0.017,0.169,0.056,0.233,0.111c1.326,0.159,2.53,0.916,3.171,2.001c0.733,1.243,0.674,2.857-0.142,3.928	c-0.803,1.052-2.191,1.667-3.142,1.794C21.31,26.131,21.066,26.147,20.8,26.147z M20.724,19.214c-0.664,0-1.329,0.253-1.814,0.706	c-0.651,0.609-0.874,1.102-0.951,2.107c-0.028,0.36,0.198,1.204,0.411,1.69c0.266,0.605,0.737,1.041,1.4,1.295	c0.363,0.14,1.116,0.165,1.589,0.103c0.604-0.08,1.811-0.533,2.479-1.409c0.567-0.742,0.599-1.926,0.076-2.812	c-0.504-0.854-1.483-1.44-2.554-1.529c-0.114-0.009-0.216-0.057-0.294-0.128C20.952,19.222,20.838,19.214,20.724,19.214z"/><path fill="#010101" d="M37.728,44.505c-0.031,0-0.062-0.003-0.093-0.009c-0.271-0.05-0.45-0.312-0.399-0.583	c0.19-1.024,0.116-2.533,0.052-3.865c-0.031-0.639-0.061-1.244-0.061-1.757c0-2.31-0.033-4.404-0.064-6.396	c-0.058-3.645-0.112-7.086,0.065-10.831c0.295-6.217,0.212-11.307-0.27-16.503c-0.025-0.274,0.177-0.519,0.452-0.544	c0.27-0.018,0.518,0.176,0.544,0.452c0.485,5.244,0.569,10.377,0.271,16.642c-0.176,3.714-0.124,6.982-0.063,10.768	c0.031,1.998,0.064,4.098,0.064,6.413c0,0.498,0.029,1.087,0.06,1.708c0.067,1.387,0.145,2.958-0.068,4.098	C38.174,44.337,37.963,44.505,37.728,44.505z"/><path fill="#010101" d="M43.175,34.636c-0.632,0-1.372-0.012-2.137-0.022c-1.268-0.021-2.579-0.038-3.284-0.001	c-0.293,0.036-0.512-0.196-0.526-0.472c-0.016-0.276,0.196-0.512,0.472-0.526c0.742-0.041,2.07-0.021,3.354-0.001	c1.261,0.018,2.562,0.038,3.266,0.001c0.283-0.028,0.512,0.197,0.525,0.473c0.015,0.275-0.196,0.511-0.473,0.525	C44.057,34.63,43.646,34.636,43.175,34.636z"/><path fill="#010101" d="M40.824,24.519c-1.059,0-2.135-0.027-2.867-0.081c-0.275-0.021-0.481-0.261-0.462-0.536	c0.021-0.275,0.263-0.482,0.536-0.462c1.325,0.099,3.932,0.106,5.259,0.015c0.269-0.023,0.514,0.189,0.533,0.465	c0.019,0.275-0.189,0.515-0.465,0.533C42.702,24.496,41.771,24.519,40.824,24.519z"/><path fill="#010101" d="M40.356,14.745c-0.996,0-1.91-0.023-2.425-0.089c-0.274-0.035-0.469-0.285-0.434-0.559	c0.035-0.275,0.297-0.471,0.559-0.434c1.188,0.151,4.926,0.059,6.261-0.014c0.314-0.025,0.512,0.196,0.526,0.472	c0.016,0.276-0.196,0.512-0.472,0.526C43.611,14.689,41.888,14.745,40.356,14.745z"/><path fill="#010101" d="M21.347,37.473c-2.935,0-7.994-0.621-10.851-4.513c-1.364-1.857-2.095-4.281-2.299-7.627	c-0.165-2.702,0.061-4.821,0.712-6.67c2.123-6.027,8.438-8.388,13.582-7.615c4.199,0.36,9.141,2.761,10.729,7.315	c0.486,1.397,1.016,4.081,0.995,5.582c-0.04,3.031-0.552,4.479-1.798,7.295c-0.445,1.006-1.485,2.385-2.264,3.24	c-1.599,1.76-4.165,2.755-7.626,2.958C22.192,37.458,21.794,37.473,21.347,37.473z M20.549,11.904	c-4.321,0-8.994,2.255-10.697,7.091c-0.605,1.719-0.814,3.713-0.657,6.277c0.192,3.146,0.861,5.4,2.106,7.096	c3.003,4.09,8.808,4.21,11.166,4.072c3.192-0.188,5.528-1.073,6.945-2.632c0.749-0.824,1.707-2.109,2.09-2.973	c1.213-2.74,1.675-4.045,1.712-6.904c0.019-1.378-0.489-3.947-0.939-5.239c-1.442-4.138-6.004-6.321-9.885-6.649l-0.033-0.004	C21.768,11.949,21.161,11.904,20.549,11.904z"/><path fill="#010101" d="M12.816,45.035c-0.539,0-0.997-0.01-1.276-0.034c-0.162-0.015-0.391-0.021-0.666-0.03	c-1.205-0.04-3.221-0.106-4.531-0.841c-1.358-0.762-2.426-2.325-2.54-3.716c-0.11-1.362-0.188-4.376-0.206-5.541	c-0.01-0.614-0.069-1.589-0.129-2.599c-0.075-1.25-0.153-2.542-0.149-3.311c0.004-0.853,0.029-1.745,0.053-2.638	c0.024-0.884,0.049-1.769,0.053-2.615c0.017-3.357-0.015-5.493-0.055-8.196L3.33,12.592C3.287,9.213,4.654,5.888,6.581,4.686	c2.86-1.784,9.086-1.626,10.304-1.581c2.529,0.103,3.629,0.05,4.602,0.001c1.239-0.061,2.306-0.113,5.666,0.129	c1.15,0.082,2.755,0.069,4.307,0.052c1.371-0.012,2.666-0.024,3.679,0.024c1.026,0.051,4.562,0.362,6.958,2.215	c2.523,1.951,2.605,4.574,2.685,7.11c0.016,0.49,0.03,0.985,0.063,1.48c0.114,1.741-0.095,4.722-0.263,7.117	c-0.049,0.707-0.094,1.348-0.124,1.867c-0.073,1.285,0.054,2.09,0.2,3.022c0.155,0.987,0.331,2.106,0.333,4.03	c0.002,2.215-0.036,2.896-0.076,3.615c-0.041,0.731-0.084,1.486-0.084,4.017c0.18,3.71-1.645,5.898-5.421,6.506	c-2.164,0.351-3.777,0.355-7.219,0.343c-0.997-0.008-2.55,0.061-4.396,0.136c-3.333,0.136-7.48,0.302-10.794,0.202	c-0.172-0.006-0.704,0.006-1.373,0.021C14.754,45.012,13.681,45.035,12.816,45.035z M15.543,4.081c-2.175,0-6.388,0.177-8.433,1.452	C5.73,6.395,4.286,9.157,4.33,12.578L4.371,15.5c0.04,2.709,0.072,4.849,0.055,8.217c-0.004,0.853-0.029,1.745-0.053,2.638	c-0.024,0.884-0.049,1.769-0.053,2.615c-0.004,0.734,0.073,2.011,0.147,3.244c0.062,1.027,0.121,2.019,0.131,2.644	c0.018,1.155,0.094,4.138,0.203,5.476c0.087,1.065,0.96,2.323,2.032,2.924c1.098,0.616,2.961,0.678,4.075,0.714	c0.297,0.01,0.545,0.019,0.721,0.034c0.671,0.059,2.66,0.017,3.977-0.012c0.694-0.016,1.242-0.027,1.426-0.021	c3.273,0.1,7.405-0.067,10.723-0.201c1.86-0.075,3.488-0.138,4.44-0.137c3.388,0.011,4.969,0.008,7.056-0.329	c3.239-0.521,4.737-2.314,4.581-5.482l-0.001-0.024c0-2.568,0.043-3.339,0.085-4.085c0.04-0.706,0.077-1.372,0.075-3.559	c-0.001-1.847-0.171-2.925-0.32-3.876c-0.156-0.988-0.29-1.843-0.211-3.234c0.03-0.523,0.075-1.169,0.125-1.88	c0.157-2.24,0.372-5.31,0.262-6.981c-0.033-0.507-0.05-1.014-0.065-1.516c-0.078-2.516-0.146-4.688-2.296-6.351	c-1.722-1.331-4.433-1.909-6.396-2.008c-0.982-0.049-2.265-0.035-3.619-0.022c-1.569,0.019-3.195,0.032-4.389-0.054	c-3.297-0.237-4.339-0.187-5.544-0.128c-0.994,0.049-2.118,0.104-4.691,0C16.678,4.098,16.205,4.081,15.543,4.081z"/></svg>